<svg width="400" height="400" viewBox="0 0 400 400" fill="none" xmlns="http://www.w3.org/2000/svg">
<path d="M144.041 318.477L112.583 332.958C113.415 332.542 147.142 311.295 147.142 311.295C147.142 303.464 141.8 292.219 133.001 290.688L137.424 284.639C132.64 277.871 125.558 273.073 117.499 271.139L98.6692 294.961C96.2278 286.633 91.3088 279.248 84.5661 273.785C80.0044 272.595 75.5908 270.896 71.4082 268.721C69.6172 275.849 67.4779 281.194 67.0302 286.869C66.2342 296.744 66.4073 317.913 69.7525 326.271C68.9963 329.334 60.4512 365.859 91.0017 365.896H144.949C148.813 350.343 147.707 334.009 144.041 318.477Z" fill="#2C3950"/>
<path d="M248.208 130.865H161.32V85.1889H248.208V130.865Z" fill="#2C3950"/>
<path d="M230.361 172.643H178.906C177.512 172.643 176.175 173.197 175.19 174.183C174.204 175.168 173.65 176.505 173.65 177.899C173.65 179.293 174.204 180.63 175.19 181.615C176.175 182.601 177.512 183.154 178.906 183.154H230.365C231.758 183.154 233.096 182.601 234.081 181.615C235.068 180.63 235.621 179.293 235.621 177.899C235.621 176.505 235.068 175.168 234.081 174.183C233.096 173.197 231.758 172.643 230.365 172.643H230.361Z" fill="#2C3950"/>
<path d="M91.5609 201.914H60.5567C59.1629 201.914 57.826 201.361 56.8404 200.374C55.8547 199.389 55.3011 198.053 55.3011 196.659C55.3011 195.265 55.8547 193.928 56.8404 192.942C57.826 191.957 59.1629 191.403 60.5567 191.403H91.5609C92.9547 191.403 94.2916 191.957 95.2772 192.942C96.2629 193.928 96.8165 195.265 96.8165 196.659C96.8165 198.053 96.2629 199.389 95.2772 200.374C94.2916 201.361 92.9547 201.914 91.5609 201.914Z" fill="#2C3950"/>
<path d="M328.894 169.091H298.76C298.061 169.078 297.367 169.204 296.718 169.462C296.067 169.72 295.476 170.104 294.977 170.594C294.479 171.083 294.083 171.667 293.813 172.311C293.542 172.955 293.403 173.647 293.403 174.346C293.403 175.045 293.542 175.737 293.813 176.381C294.083 177.025 294.479 177.609 294.977 178.098C295.476 178.587 296.067 178.972 296.718 179.23C297.367 179.488 298.061 179.614 298.76 179.601H328.894C329.593 179.614 330.287 179.488 330.936 179.23C331.587 178.972 332.178 178.587 332.677 178.098C333.175 177.609 333.571 177.025 333.841 176.381C334.112 175.737 334.251 175.045 334.251 174.346C334.251 173.647 334.112 172.955 333.841 172.311C333.571 171.667 333.175 171.083 332.677 170.594C332.178 170.104 331.587 169.72 330.936 169.462C330.287 169.204 329.593 169.078 328.894 169.091Z" fill="#2C3950"/>
<path d="M75.1892 260.854L80.5204 265.089C80.5204 264.182 80.596 263.274 80.6338 262.293C78.7549 262.102 76.9175 261.616 75.1892 260.854Z" fill="#DBD6CB"/>
<path d="M50.7261 246.566C50.0455 248.908 46.7461 262.333 57.8344 269.363C56.7757 269.817 51.5201 273.525 51.0684 273.865C46.3195 277.375 42.1785 281.64 38.81 286.489C31.8908 296.887 31.059 312.465 41.6836 320.747C48.7162 326.19 61.496 326.646 68.1884 320.15C66.6141 309.146 66.2338 298.004 67.0541 286.917C67.5078 281.093 69.6251 276.104 70.9107 270.733C73.8221 258.699 71.8957 255.557 69.2092 248.843C64.1049 247.597 65.9198 241.547 69.4361 243.587C69.9292 243.909 70.482 244.128 71.0619 244.232C72.9902 234.401 76.7334 233.685 80.1363 236.857C75.2728 230.471 55.4265 230.507 50.7261 246.566Z" fill="#DBD6CB"/>
<path d="M142.718 314.015C116.326 330.813 114.205 332.11 112.508 332.958L143.966 318.477L142.718 314.015Z" fill="#DBD6CB"/>
<path d="M254.446 362.677C247.754 357.005 237.929 350.124 229.152 347.553C221.195 349.841 212.758 349.841 204.802 347.553C203.246 351.986 202.255 356.601 201.853 361.284C201.805 361.843 201.877 362.404 202.058 362.935C202.241 363.465 202.531 363.952 202.911 364.364C203.291 364.776 203.753 365.104 204.269 365.327C204.782 365.55 205.337 365.664 205.898 365.662C221.136 365.699 234.369 365.861 253.274 365.89C253.648 365.892 254.015 365.779 254.323 365.566C254.629 365.351 254.864 365.049 254.992 364.696C255.119 364.344 255.137 363.962 255.039 363.6C254.942 363.238 254.735 362.915 254.446 362.677Z" fill="#DBD6CB"/>
<path d="M300.083 317.04C300.055 316.68 299.916 316.335 299.683 316.059C299.45 315.78 299.138 315.581 298.788 315.49C298.437 315.398 298.067 315.418 297.729 315.547C297.391 315.677 297.1 315.908 296.899 316.208C291.228 322.902 284.346 338.783 281.775 347.553C283.964 355.948 284.119 358.026 281.813 365.892H299.922C301.49 366.042 302.883 332.657 300.083 317.04Z" fill="#DBD6CB"/>
<path d="M101.807 93.6962C101.807 94.7057 101.508 95.6926 100.947 96.532C100.386 97.3713 99.5892 98.0257 98.6565 98.4119C97.7238 98.7984 96.6975 98.8995 95.7073 98.7024C94.7171 98.5054 93.8076 98.0193 93.0938 97.3055C92.38 96.5917 91.8939 95.6822 91.6968 94.692C91.4998 93.7018 91.6009 92.6755 91.9872 91.7428C92.3736 90.8101 93.028 90.0129 93.8673 89.4521C94.7067 88.8912 95.6936 88.5919 96.7031 88.5919C98.0567 88.5925 99.3548 89.1303 100.312 90.0875C101.269 91.0445 101.807 92.3426 101.807 93.6962Z" fill="#DBD6CB"/>
<path d="M162.228 335.985L148.276 345.399C151.14 342.317 153.794 339.045 156.22 335.607C156.178 335.642 158.485 335.718 162.228 335.985Z" fill="#DBD6CB"/>
<path d="M85.3601 260.287C90.9689 264.313 97.7019 266.47 104.605 266.456H128.087" stroke="#DBD6CB" stroke-linecap="round" stroke-linejoin="round"/>
<path d="M146.159 266.45H138.634" stroke="#DBD6CB" stroke-linecap="round" stroke-linejoin="round"/>
<path d="M147.558 266.452H304.923C309.263 266.454 313.561 265.6 317.571 263.941C321.581 262.279 325.225 259.845 328.293 256.777C331.362 253.708 333.796 250.064 335.457 246.055C337.117 242.045 337.971 237.746 337.969 233.406V224.027" stroke="#DBD6CB" stroke-linecap="round" stroke-linejoin="round"/>
<path d="M337.969 160.507V104.888C337.971 100.548 337.117 96.2506 335.455 92.2407C333.796 88.2311 331.362 84.5876 328.293 81.519C325.223 78.4502 321.581 76.0162 317.571 74.3564C313.561 72.6963 309.263 71.8426 304.923 71.8442H104.605C100.265 71.8426 95.9678 72.6963 91.9579 74.3564C87.9479 76.0162 84.3044 78.4502 81.2356 81.519C78.1666 84.5876 75.7324 88.2311 74.0722 92.2407C72.4119 96.2506 71.558 100.548 71.5594 104.888V160.507" stroke="#DBD6CB" stroke-linecap="round" stroke-linejoin="round"/>
<path d="M71.5594 233.064V224.027" stroke="#DBD6CB" stroke-linecap="round" stroke-linejoin="round"/>
<path d="M69.7446 326.267C69.0284 324.252 68.4956 322.176 68.1526 320.065" stroke="#DBD6CB" stroke-linecap="round" stroke-linejoin="round"/>
<path d="M73.834 273.332C76.667 274.205 79.4341 275.28 82.1144 276.545C85.0717 278.056 87.5007 280.43 89.0794 283.351C94.0132 292.475 99.4015 301.347 105.224 309.932L132.939 290.648C138.195 291.558 142.105 295.803 144.32 300.443C146.016 303.804 146.958 307.494 147.08 311.255C145.016 312.586 118.896 329.181 115.055 331.523C102.074 339.439 91.9589 336.717 84.58 323.394C83.4079 321.277 72.3674 303.468 72.3674 303.468" stroke="#DBD6CB" stroke-linecap="round" stroke-linejoin="round"/>
<path d="M80.5204 265.089L75.1892 260.854C76.9303 261.616 78.7802 262.102 80.6717 262.291" stroke="#DBD6CB" stroke-linecap="round" stroke-linejoin="round"/>
<path d="M101.202 303.846C99.9774 298.658 98.3076 293.586 96.2115 288.684C91.137 277.721 83.79 273.728 81.9194 271.33C80.7084 269.489 80.2129 267.27 80.5264 265.089L80.6776 262.291C81.5689 262.367 82.4654 262.223 83.2891 261.875C84.1127 261.525 84.8387 260.98 85.4038 260.287C89.4356 255.165 85.2148 241.609 80.1483 236.845" stroke="#DBD6CB" stroke-linecap="round" stroke-linejoin="round"/>
<path d="M80.1423 236.845C76.7394 233.661 72.9962 234.389 71.0679 244.22C70.4878 244.116 69.9348 243.897 69.4421 243.575C65.9237 241.537 64.1109 247.583 69.2152 248.831C70.3324 251.018 71.1829 253.33 71.7485 255.72C72.7769 260.711 72.4903 265.883 70.9167 270.729C69.6251 276.102 67.5337 281.09 67.06 286.913C66.2467 298 66.627 309.142 68.1943 320.146C61.502 326.65 48.7142 326.208 41.6895 320.743C31.049 312.483 31.8828 296.879 38.81 286.489C42.1622 281.628 46.3026 277.361 51.0604 273.863C51.5122 273.519 56.7698 269.815 57.8264 269.361C46.7481 262.329 50.0356 248.906 50.7182 246.564C53.8823 235.709 63.874 232.262 71.5515 232.988C74.8115 233.092 77.899 234.477 80.1423 236.845Z" stroke="#DBD6CB" stroke-linecap="round" stroke-linejoin="round"/>
<path d="M147.394 346.235C152.19 341.981 161.669 327.967 165.139 322.554C172.192 332.05 187.407 338.323 204.726 347.545" stroke="#DBD6CB" stroke-linecap="round" stroke-linejoin="round"/>
<path d="M229.152 347.59C216.063 341.795 186.293 307.094 178.902 298.817C175.485 294.999 170.847 292.485 165.782 291.707" stroke="#DBD6CB" stroke-linecap="round" stroke-linejoin="round"/>
<path d="M143.932 318.493L112.508 332.958" stroke="#DBD6CB" stroke-linecap="round" stroke-linejoin="round"/>
<path d="M142.756 314.015C147.532 331.087 149.227 348.693 144.945 365.892H90.9938C59.0821 365.892 69.7824 326.076 69.7824 326.076C75.1613 326.522 80.5718 326.407 85.9272 325.736" stroke="#DBD6CB" stroke-linecap="round" stroke-linejoin="round"/>
<path d="M229.152 347.553C237.923 350.124 247.722 357.043 254.446 362.677C254.735 362.915 254.942 363.238 255.041 363.6C255.139 363.962 255.123 364.346 254.994 364.698C254.866 365.051 254.631 365.353 254.323 365.568C254.017 365.781 253.648 365.894 253.274 365.892C234.369 365.872 221.136 365.693 205.898 365.664C205.339 365.666 204.784 365.55 204.271 365.325C203.757 365.102 203.295 364.774 202.915 364.362C202.535 363.95 202.245 363.465 202.062 362.935C201.879 362.406 201.807 361.845 201.853 361.286C202.269 356.605 203.26 351.994 204.802 347.555C212.758 349.843 221.195 349.841 229.152 347.553Z" stroke="#DBD6CB" stroke-linecap="round" stroke-linejoin="round"/>
<path d="M281.789 347.553C284.36 338.781 291.279 322.932 296.913 316.208C297.114 315.908 297.405 315.679 297.743 315.551C298.081 315.422 298.451 315.402 298.8 315.494C299.15 315.585 299.462 315.784 299.695 316.061C299.928 316.337 300.067 316.68 300.097 317.04C302.915 332.653 301.49 366.044 299.946 365.892H281.837C284.127 358.028 283.978 355.946 281.789 347.553Z" stroke="#DBD6CB" stroke-linecap="round" stroke-linejoin="round"/>
<path d="M281.789 347.553C259.292 348.876 237.438 345.775 222.314 343.175" stroke="#DBD6CB" stroke-linecap="round" stroke-linejoin="round"/>
<path d="M156.329 288.191C161.736 286.832 166.214 289.172 165.895 291.253C165.828 291.675 165.668 292.077 165.427 292.43C165.186 292.784 164.87 293.078 164.502 293.295" stroke="#DBD6CB" stroke-linecap="round" stroke-linejoin="round"/>
<path d="M155.762 284.901C161.434 283.465 167.181 286.225 164.761 289.249" stroke="#DBD6CB" stroke-linecap="round" stroke-linejoin="round"/>
<path d="M146.574 307.02C150.131 302.204 155 298.517 160.598 296.396" stroke="#DBD6CB" stroke-linecap="round" stroke-linejoin="round"/>
<path d="M156.178 292.085C161.434 290.951 164.95 292.917 164.761 294.997C164.534 297.492 159.587 301.388 155.309 299.042" stroke="#DBD6CB" stroke-linecap="round" stroke-linejoin="round"/>
<path d="M136.404 291.707C138.823 289.212 151.953 278.05 152.851 278.927C153.846 279.9 151.603 283.051 151.603 283.051" stroke="#DBD6CB" stroke-linecap="round" stroke-linejoin="round"/>
<path d="M136.404 291.707C140.587 288.278 145.282 285.524 150.318 283.548C156.531 281.12 162.614 278.37 168.542 275.308C170.333 274.253 167.861 279.807 158.485 284.493" stroke="#DBD6CB" stroke-linecap="round" stroke-linejoin="round"/>
<path d="M248.208 111.996H337.969" stroke="#DBD6CB" stroke-linecap="round" stroke-linejoin="round"/>
<path d="M71.5594 111.996H161.32" stroke="#DBD6CB" stroke-linecap="round" stroke-linejoin="round"/>
<path d="M101.807 93.6962C101.807 94.7057 101.508 95.6926 100.947 96.532C100.386 97.3713 99.5892 98.0257 98.6565 98.4119C97.7238 98.7984 96.6975 98.8995 95.7073 98.7024C94.7171 98.5054 93.8076 98.0193 93.0938 97.3055C92.38 96.5917 91.8939 95.6822 91.6968 94.692C91.4998 93.7018 91.6009 92.6755 91.9872 91.7428C92.3736 90.8101 93.028 90.0129 93.8673 89.4521C94.7067 88.8912 95.6936 88.5919 96.7031 88.5919C98.0567 88.5925 99.3548 89.1303 100.312 90.0875C101.269 91.0445 101.807 92.3426 101.807 93.6962Z" stroke="#DBD6CB" stroke-linecap="round" stroke-linejoin="round"/>
<path d="M117.272 93.6962C117.272 94.7057 116.972 95.6926 116.411 96.532C115.851 97.3713 115.053 98.0257 114.121 98.4119C113.188 98.7984 112.162 98.8995 111.172 98.7024C110.181 98.5054 109.272 98.0193 108.558 97.3055C107.844 96.5917 107.358 95.6822 107.161 94.692C106.964 93.7018 107.065 92.6755 107.451 91.7428C107.838 90.8101 108.492 90.0129 109.332 89.4521C110.171 88.8912 111.158 88.5919 112.167 88.5919C113.521 88.5925 114.819 89.1303 115.776 90.0875C116.733 91.0445 117.271 92.3426 117.272 93.6962Z" stroke="#DBD6CB" stroke-linecap="round" stroke-linejoin="round"/>
<path d="M132.812 93.6962C132.812 94.7057 132.512 95.6926 131.951 96.532C131.391 97.3713 130.593 98.0257 129.661 98.4119C128.728 98.7984 127.702 98.8995 126.711 98.7024C125.721 98.5054 124.812 98.0193 124.098 97.3055C123.384 96.5917 122.898 95.6822 122.701 94.692C122.504 93.7018 122.605 92.6755 122.991 91.7428C123.378 90.8101 124.032 90.0129 124.872 89.4521C125.711 88.8912 126.698 88.5919 127.707 88.5919C129.061 88.5925 130.359 89.1303 131.316 90.0875C132.273 91.0445 132.811 92.3426 132.812 93.6962Z" stroke="#DBD6CB" stroke-linecap="round" stroke-linejoin="round"/>
<path d="M98.5936 294.923L117.423 271.103C125.493 273.035 132.588 277.831 137.387 284.601L132.925 290.65" stroke="#DBD6CB" stroke-linecap="round" stroke-linejoin="round"/>
<path d="M137.462 271.479C139.92 260.968 141.993 252.574 142.453 250.003C143.721 242.93 141.856 243.089 139.05 249.057C135.162 257.995 129.429 266.01 122.225 272.575" stroke="#DBD6CB" stroke-linecap="round" stroke-linejoin="round"/>
<path d="M141.999 252.122C143.935 250.287 146.11 248.723 148.465 247.471C149.148 247.171 150.322 247.589 147.368 251.053C145.406 253.362 141.81 258.018 140.147 260.279" stroke="#DBD6CB" stroke-linecap="round" stroke-linejoin="round"/>
<path d="M137.992 269.053C140.237 268.462 142.446 267.742 144.608 266.896C147.289 266.016 149.818 265.073 144.23 270.526C140.813 273.925 137.689 277.604 134.891 281.528" stroke="#DBD6CB" stroke-linecap="round" stroke-linejoin="round"/>
<path d="M228.457 205.54C228.365 204.571 227.948 203.66 227.271 202.959C226.594 202.259 225.699 201.807 224.734 201.682L185.708 195.67C183.704 195.367 182.126 196.466 182.154 198.167L182.532 229.55L157.086 246.367C155.573 247.312 156.443 249.619 158.56 250.224L198.109 261.368C198.629 261.545 199.183 261.6 199.727 261.527C200.273 261.455 200.792 261.258 201.248 260.952L228.451 239.967L228.457 205.54Z" stroke="#DBD6CB" stroke-linecap="round" stroke-linejoin="round"/>
<path d="M228.451 239.983L182.532 229.55" stroke="#DBD6CB" stroke-linecap="round" stroke-linejoin="round"/>
<path d="M223.14 234.123C223.82 234.276 224.483 233.933 224.483 233.327V207.391C224.461 207.076 224.33 206.778 224.113 206.551C223.894 206.322 223.603 206.179 223.289 206.143L187.596 200.472C187.464 200.432 187.324 200.424 187.187 200.448C187.051 200.47 186.922 200.523 186.809 200.603C186.696 200.683 186.603 200.788 186.536 200.909C186.469 201.031 186.431 201.166 186.424 201.303L186.651 224.823C186.686 225.12 186.814 225.398 187.019 225.615C187.223 225.834 187.492 225.979 187.785 226.033L223.14 234.123Z" stroke="#DBD6CB" stroke-linecap="round" stroke-linejoin="round"/>
<path d="M130.051 224.027H43.1263V160.507H130.051V224.027Z" stroke="#DBD6CB" stroke-linecap="round" stroke-linejoin="round"/>
<path d="M182.456 224.027H161.32V160.507H248.208V224.027H228.509" stroke="#DBD6CB" stroke-linecap="round" stroke-linejoin="round"/>
<path d="M366.364 224.027H279.477V160.507H366.364V224.027Z" stroke="#DBD6CB" stroke-linecap="round" stroke-linejoin="round"/>
<path d="M248.208 130.865H161.32V85.1889H248.208V130.865Z" stroke="#DBD6CB" stroke-linecap="round" stroke-linejoin="round"/>
<path d="M204.764 130.865V160.506" stroke="#DBD6CB" stroke-linecap="round" stroke-linejoin="round"/>
<path d="M227.79 130.865V145.685H322.92V160.506" stroke="#DBD6CB" stroke-linecap="round" stroke-linejoin="round"/>
<path d="M183.25 130.865V145.685H86.6078V160.506" stroke="#DBD6CB" stroke-linecap="round" stroke-linejoin="round"/>
<path d="M196.9 116.571L178.94 107.612L196.673 99.1408" stroke="#DBD6CB" stroke-linecap="round" stroke-linejoin="round"/>
<path d="M212.855 116.647L230.588 107.535L212.629 99.2165" stroke="#DBD6CB" stroke-linecap="round" stroke-linejoin="round"/>
<path d="M210.889 91.7321L198.412 124.322" stroke="#DBD6CB" stroke-linecap="round" stroke-linejoin="round"/>
<path d="M112.016 183.155C112.715 183.168 113.409 183.042 114.058 182.785C114.708 182.527 115.299 182.142 115.798 181.652C116.297 181.163 116.694 180.579 116.964 179.935C117.235 179.291 117.374 178.599 117.374 177.9C117.374 177.201 117.235 176.51 116.964 175.865C116.694 175.221 116.297 174.637 115.798 174.148C115.299 173.659 114.708 173.274 114.058 173.016C113.409 172.758 112.715 172.632 112.016 172.645H60.5945C59.8958 172.632 59.2015 172.758 58.5522 173.016C57.9026 173.274 57.3112 173.659 56.8123 174.148C56.3134 174.637 55.917 175.221 55.6466 175.865C55.3759 176.51 55.2366 177.201 55.2366 177.9C55.2366 178.599 55.3759 179.291 55.6466 179.935C55.917 180.579 56.3134 181.163 56.8123 181.652C57.3112 182.142 57.9026 182.527 58.5522 182.785C59.2015 183.042 59.8958 183.168 60.5945 183.155H112.016Z" stroke="#DBD6CB" stroke-linecap="round" stroke-linejoin="round"/>
<path d="M230.361 172.644C231.754 172.644 233.092 173.197 234.077 174.183C235.064 175.169 235.617 176.505 235.617 177.899C235.617 179.293 235.064 180.63 234.077 181.615C233.092 182.601 231.754 183.155 230.361 183.155H178.906C177.512 183.155 176.175 182.601 175.19 181.615C174.204 180.63 173.65 179.293 173.65 177.899C173.65 176.505 174.204 175.169 175.19 174.183C176.175 173.197 177.512 172.644 178.906 172.644H230.361Z" stroke="#DBD6CB" stroke-linecap="round" stroke-linejoin="round"/>
<path d="M91.5609 191.403C92.9593 191.408 94.2984 191.968 95.2838 192.96C96.2694 193.952 96.8207 195.294 96.8165 196.693C96.8171 197.381 96.6812 198.064 96.4169 198.7C96.1526 199.336 95.765 199.913 95.2762 200.398C94.7877 200.884 94.2078 201.268 93.5702 201.528C92.9326 201.789 92.2496 201.92 91.5609 201.914H60.5945C59.2007 201.914 57.8638 201.361 56.8782 200.376C55.8925 199.389 55.3389 198.053 55.3389 196.659C55.3389 195.265 55.8925 193.928 56.8782 192.943C57.8638 191.957 59.2007 191.403 60.5945 191.403H91.5609Z" stroke="#DBD6CB" stroke-linecap="round" stroke-linejoin="round"/>
<path d="M328.894 169.091C329.593 169.078 330.287 169.204 330.936 169.462C331.587 169.72 332.178 170.104 332.677 170.594C333.175 171.083 333.571 171.667 333.841 172.311C334.112 172.955 334.251 173.647 334.251 174.346C334.251 175.045 334.112 175.737 333.841 176.381C333.571 177.025 333.175 177.609 332.677 178.098C332.178 178.587 331.587 178.972 330.936 179.23C330.287 179.488 329.593 179.614 328.894 179.601H298.76C298.061 179.614 297.367 179.488 296.718 179.23C296.067 178.972 295.476 178.587 294.977 178.098C294.479 177.609 294.083 177.025 293.813 176.381C293.542 175.737 293.403 175.045 293.403 174.346C293.403 173.647 293.542 172.955 293.813 172.311C294.083 171.667 294.479 171.083 294.977 170.594C295.476 170.104 296.067 169.72 296.718 169.462C297.367 169.204 298.061 169.078 298.76 169.091H328.894Z" stroke="#DBD6CB" stroke-linecap="round" stroke-linejoin="round"/>
<path d="M343.111 187.843C344.488 187.87 345.797 188.436 346.763 189.418C347.726 190.401 348.267 191.723 348.267 193.1C348.267 194.476 347.726 195.798 346.763 196.781C345.797 197.764 344.488 198.329 343.111 198.356H298.76C297.383 198.329 296.073 197.764 295.108 196.781C294.145 195.798 293.604 194.476 293.604 193.1C293.604 191.723 294.145 190.401 295.108 189.418C296.073 188.436 297.383 187.87 298.76 187.843H343.111Z" stroke="#DBD6CB" stroke-linecap="round" stroke-linejoin="round"/>
<path d="M179.318 137.442L183.326 130.865L187.069 137.631" stroke="#DBD6CB" stroke-linecap="round" stroke-linejoin="round"/>
<path d="M200.794 137.442L204.802 130.865L208.507 137.631" stroke="#DBD6CB" stroke-linecap="round" stroke-linejoin="round"/>
<path d="M223.934 137.442L227.942 130.865L231.647 137.631" stroke="#DBD6CB" stroke-linecap="round" stroke-linejoin="round"/>
<path d="M360.239 131.279L346.665 144.74" stroke="#DBD6CB" stroke-linecap="round" stroke-linejoin="round"/>
<path d="M360.201 144.778L346.703 131.244" stroke="#DBD6CB" stroke-linecap="round" stroke-linejoin="round"/>
<path d="M50.3102 135.703L56.2842 144.135L63.279 131.922" stroke="#DBD6CB" stroke-linecap="round" stroke-linejoin="round"/>
<path d="M84.5282 273.787C79.9668 272.593 75.5533 270.894 71.3704 268.719" stroke="#DBD6CB" stroke-linecap="round" stroke-linejoin="round"/>
<path d="M205.482 36.6409L197.656 39.212L202.193 43.2955L196.219 49.9878L199.433 52.8614L205.407 46.169L209.944 50.2147L213.309 34.0698L205.482 36.6409Z" stroke="#DBD6CB" stroke-linecap="round" stroke-linejoin="round"/>
<path d="M243.482 291.707C243.482 292.252 243.32 292.786 243.016 293.241C242.713 293.695 242.282 294.047 241.778 294.256C241.273 294.465 240.717 294.521 240.182 294.414C239.647 294.308 239.155 294.045 238.769 293.659C238.383 293.273 238.12 292.782 238.015 292.246C237.908 291.711 237.963 291.156 238.172 290.65C238.381 290.147 238.733 289.715 239.187 289.413C239.643 289.108 240.176 288.947 240.721 288.947C241.452 288.951 242.152 289.244 242.668 289.761C243.185 290.276 243.478 290.977 243.482 291.707Z" stroke="#DBD6CB" stroke-linecap="round" stroke-linejoin="round"/>
<path d="M10.95 365.89H389.05" stroke="#DBD6CB" stroke-linecap="round" stroke-linejoin="round"/>
<path d="M162.228 335.985L148.238 345.437" stroke="#DBD6CB" stroke-linecap="round" stroke-linejoin="round"/>
<path d="M156.178 335.642C166.922 336.14 177.628 337.264 188.241 339.009" stroke="#DBD6CB" stroke-linecap="round" stroke-linejoin="round"/>
<path d="M165.139 322.562L162.606 318.893" stroke="#DBD6CB" stroke-linecap="round" stroke-linejoin="round"/>
</svg>
