<svg width="53" height="28" viewBox="0 0 53 28" fill="none" xmlns="http://www.w3.org/2000/svg">
<g filter="url(#filter0_d_1_31)">
<path d="M18.19 12.26C18.75 12.26 19.17 12.38 19.45 12.62C19.75 12.84 19.9 13.16 19.9 13.58C19.9 13.76 19.87 13.96 19.81 14.18L18.82 17.69C18.56 18.55 18.19 19.15 17.71 19.49C17.25 19.83 16.56 20 15.64 20H1.54C1.12 20 0.8 19.93 0.58 19.79C0.34 19.65 0.22 19.46 0.22 19.22C0.22 19.1 0.25 18.97 0.31 18.83C0.37 18.67 0.47 18.54 0.61 18.44C0.75 18.32 0.9 18.21 1.06 18.11C1.38 17.91 1.64 17.71 1.84 17.51C2.04 17.29 2.21 16.94 2.35 16.46L6.01 3.53C6.09 3.27 6.13 3.02 6.13 2.78C6.13 2.56 6.09 2.38 6.01 2.24C5.95 2.08 5.86 1.9 5.74 1.7C5.56 1.44 5.47 1.23 5.47 1.07C5.47 1.01 5.49 0.9 5.53 0.739999C5.61 0.479999 5.78 0.299999 6.04 0.199999C6.32 0.0799996 6.74 0.0199997 7.3 0.0199997H14.35C14.77 0.0199997 15.09 0.0899994 15.31 0.229999C15.55 0.349998 15.67 0.529999 15.67 0.769999C15.67 0.869999 15.64 0.999999 15.58 1.16C15.52 1.3 15.43 1.43 15.31 1.55C15.21 1.65 15.11 1.73 15.01 1.79C14.93 1.83 14.87 1.87 14.83 1.91C14.51 2.09 14.25 2.29 14.05 2.51C13.85 2.73 13.68 3.07 13.54 3.53L9.67 17.12H11.53C11.99 17.12 12.38 17.04 12.7 16.88C13.04 16.72 13.39 16.42 13.75 15.98L15.82 13.52C16.2 13.08 16.56 12.76 16.9 12.56C17.26 12.36 17.69 12.26 18.19 12.26ZM37.551 0.0199997C38.911 0.0199997 40.091 0.229999 41.091 0.649999C42.111 1.05 42.881 1.61 43.401 2.33C43.941 3.03 44.211 3.84 44.211 4.76C44.211 5.28 44.141 5.76 44.001 6.2C43.421 8.22 41.751 9.5 38.991 10.04C39.951 10.32 40.711 10.79 41.271 11.45C41.831 12.09 42.111 12.89 42.111 13.85C42.111 14.29 42.031 14.81 41.871 15.41C41.431 16.97 40.541 18.13 39.201 18.89C37.881 19.63 36.001 20 33.561 20H21.081C20.661 20 20.341 19.93 20.121 19.79C19.881 19.65 19.761 19.46 19.761 19.22C19.761 19.1 19.791 18.97 19.851 18.83C19.931 18.61 20.061 18.44 20.241 18.32C20.421 18.2 20.531 18.13 20.571 18.11C20.891 17.91 21.151 17.71 21.351 17.51C21.551 17.29 21.721 16.94 21.861 16.46L25.521 3.53C25.601 3.27 25.641 3.02 25.641 2.78C25.641 2.56 25.601 2.38 25.521 2.24C25.461 2.08 25.371 1.9 25.251 1.7C25.071 1.44 24.981 1.23 24.981 1.07C24.981 1.01 25.001 0.9 25.041 0.739999C25.121 0.479999 25.291 0.299999 25.551 0.199999C25.831 0.0799996 26.251 0.0199997 26.811 0.0199997H37.551ZM36.201 5.51C36.341 5.07 36.411 4.66 36.411 4.28C36.411 3.24 35.821 2.72 34.641 2.72H33.291L31.701 8.33H33.021C33.861 8.33 34.521 8.13 35.001 7.73C35.501 7.31 35.901 6.57 36.201 5.51ZM34.011 14.33C34.151 13.85 34.221 13.41 34.221 13.01C34.221 11.93 33.601 11.39 32.361 11.39H30.861L29.151 17.3H30.681C31.541 17.3 32.231 17.09 32.751 16.67C33.271 16.23 33.691 15.45 34.011 14.33Z" fill="#DBD6CB"/>
</g>
<defs>
<filter id="filter0_d_1_31" x="0.219971" y="0.019989" width="51.991" height="27.98" filterUnits="userSpaceOnUse" color-interpolation-filters="sRGB">
<feFlood flood-opacity="0" result="BackgroundImageFix"/>
<feColorMatrix in="SourceAlpha" type="matrix" values="0 0 0 0 0 0 0 0 0 0 0 0 0 0 0 0 0 0 127 0" result="hardAlpha"/>
<feOffset dx="4" dy="4"/>
<feGaussianBlur stdDeviation="2"/>
<feComposite in2="hardAlpha" operator="out"/>
<feColorMatrix type="matrix" values="0 0 0 0 0 0 0 0 0 0 0 0 0 0 0 0 0 0 0.5 0"/>
<feBlend mode="normal" in2="BackgroundImageFix" result="effect1_dropShadow_1_31"/>
<feBlend mode="normal" in="SourceGraphic" in2="effect1_dropShadow_1_31" result="shape"/>
</filter>
</defs>
</svg>
