<svg width="80" height="80" viewBox="0 0 80 80" fill="none" xmlns="http://www.w3.org/2000/svg">
<path d="M24.2495 11.8598C22.9948 12.5842 21.6744 14.5818 21.5212 18.9393C21.4484 21.0091 19.7115 22.628 17.6418 22.5552C15.572 22.4824 13.9531 20.7455 14.0258 18.6757C14.2137 13.3337 15.903 8.0183 20.4995 5.36455C25.109 2.70327 30.5742 3.91178 35.3064 6.43635C37.1337 7.4112 37.8247 9.6828 36.8499 11.5101C35.875 13.3374 33.6034 14.0284 31.7762 13.0536C27.909 10.9905 25.5079 11.1332 24.2495 11.8598ZM44.357 18.3642C45.9518 17.0429 48.3158 17.2647 49.6371 18.8595C52.409 22.2052 55.068 26.0203 57.4815 30.2009C62.683 39.2096 65.89 48.4393 66.7545 56.181C67.186 60.0455 67.054 63.723 66.1515 66.877C65.242 70.055 63.4705 72.9315 60.4995 74.6465C56.905 76.722 52.7545 76.4275 48.9557 75.0445C45.1434 73.6565 41.2197 71.028 37.4793 67.614C35.9496 66.2175 35.8415 63.8455 37.2378 62.316C38.634 60.7865 41.0059 60.678 42.5356 62.0745C45.8312 65.0825 48.9283 67.0525 51.5215 67.997C54.1285 68.946 55.7685 68.718 56.7495 68.1515C57.5715 67.677 58.3985 66.71 58.941 64.8135C59.4905 62.8935 59.664 60.2645 59.301 57.013C58.576 50.5225 55.7955 42.2804 50.9865 33.9509C48.7746 30.1198 46.354 26.6528 43.8616 23.6443C42.5403 22.0495 42.7621 19.6855 44.357 18.3642Z" fill="#DBD6CB"/>
<path d="M72.5 41.0279C72.5 39.5791 71.43 37.4368 67.733 35.1254C65.977 34.0275 65.4435 31.7138 66.5415 29.9577C67.6395 28.2016 69.953 27.6681 71.709 28.766C76.2415 31.5997 80 35.7204 80 41.0279C80 46.3505 76.221 50.479 71.6685 53.315C69.9105 54.41 67.5975 53.873 66.5025 52.115C65.4075 50.357 65.945 48.0444 67.7025 46.9493C71.423 44.6318 72.5 42.481 72.5 41.0279ZM56.813 55.189C57.16 57.231 55.786 59.1675 53.744 59.5145C49.461 60.242 44.8274 60.637 40 60.637C29.5977 60.637 20.0009 58.8 12.8643 55.6775C9.3016 54.119 6.18295 52.166 3.90265 49.8075C1.60489 47.4308 0 44.4583 0 41.0279C0 36.8775 2.33041 33.43 5.4274 30.8318C8.5356 28.2243 12.7736 26.1404 17.6006 24.6082C19.5747 23.9817 21.6829 25.074 22.3095 27.048C22.936 29.022 21.8437 31.1302 19.8697 31.7568C15.6167 33.1067 12.362 34.8039 10.2477 36.5777C8.1221 38.3609 7.5 39.895 7.5 41.0279C7.5 41.9768 7.9238 43.1765 9.29475 44.5946C10.6832 46.0307 12.8732 47.4953 15.8704 48.8066C21.8538 51.424 30.382 53.137 40 53.137C44.4238 53.137 48.6366 52.7745 52.488 52.12C54.53 51.7735 56.4665 53.1475 56.813 55.189Z" fill="#DBD6CB"/>
<path d="M24.3596 68.1515C25.6143 68.876 28.0045 69.0205 31.8547 66.9745C33.6837 66.0025 35.9541 66.6975 36.9259 68.526C37.8978 70.355 37.2031 72.6255 35.3742 73.5975C30.6539 76.1055 25.206 77.3005 20.6096 74.6465C16.0001 71.9855 14.3141 66.648 14.1343 61.2875C14.0649 59.2175 15.6866 57.4835 17.7565 57.414C19.8264 57.3445 21.5607 58.966 21.6301 61.036C21.777 65.417 23.1011 67.425 24.3596 68.1515ZM19.9389 47.4856C17.9972 46.7651 17.0072 44.6069 17.7278 42.6652C19.2393 38.592 21.2137 34.3815 23.6274 30.2009C28.8286 21.1923 35.2181 13.7998 41.4903 9.18046C44.6215 6.87436 47.8721 5.14996 51.055 4.35452C54.262 3.55296 57.639 3.64933 60.6095 5.36456C64.204 7.43976 66.0245 11.1817 66.726 15.1629C67.43 19.1584 67.116 23.8705 66.029 28.817C65.5845 30.8398 63.5845 32.1194 61.562 31.6751C59.539 31.2307 58.2595 29.2306 58.704 27.2078C59.661 22.8496 59.8185 19.1824 59.34 16.4644C58.8585 13.732 57.8405 12.4262 56.8595 11.8598C56.038 11.3853 54.787 11.1525 52.8735 11.6307C50.9355 12.1151 48.5721 13.2794 45.9378 15.2194C40.6792 19.0923 34.9316 25.6214 30.1226 33.9509C27.9107 37.782 26.1184 41.6118 24.7592 45.2745C24.0387 47.2162 21.8805 48.2061 19.9389 47.4856Z" fill="#DBD6CB"/>
<path d="M47.2963 40.3309C47.2963 44.0847 44.2531 47.1278 40.4993 47.1278C36.7455 47.1278 33.7025 44.0847 33.7025 40.3309C33.7025 36.5771 36.7455 33.5341 40.4993 33.5341C44.2531 33.5341 47.2963 36.5771 47.2963 40.3309Z" fill="#DBD6CB"/>
</svg>
