<svg width="800" height="800" viewBox="0 0 800 800" fill="none" xmlns="http://www.w3.org/2000/svg">
<g clip-path="url(#clip0_52_34)">
<path d="M645.981 255.032V543.124L401.181 687.957L398.968 689.97V797.643L401.181 799.73L745.946 600.584V199.146L742.689 198.349L645.492 252.689L645.981 255.032Z" fill="#615F5B"/>
<path d="M155.595 545.484L401.181 687.957V799.73L54.0541 599.797V199.932L57.6162 199.395L154.532 255.741L155.595 258.968V545.484Z" fill="#9F9C95"/>
<path d="M155.595 258.968L54.0541 199.932L400.395 0L745.946 199.146L645.981 255.032L400.395 114.922L155.595 258.968Z" fill="#DBD6CB"/>
<path d="M396.968 512.535L394.308 509.822V401.643L396.968 400.27L397.614 397.603L490.357 343.503L493.195 344.138V455.603L396.968 512.535Z" fill="#615F5B"/>
<path d="M299.135 459.076V343.338L301.824 343.205L396.165 398.108L396.968 400.27V512.535L299.135 459.076Z" fill="#9F9C95"/>
<path d="M395.362 286.403L299.135 343.338L396.968 400.27L493.195 344.138L395.362 286.403Z" fill="#DBD6CB"/>
<path d="M277.216 583.103L274.559 580.389V472.208L277.216 470.838L277.865 468.17L370.605 414.07L373.443 414.705V526.168L277.216 583.103Z" fill="#615F5B"/>
<path d="M179.386 529.643V413.903L182.073 413.77L276.414 468.676L277.216 470.838V583.103L179.386 529.643Z" fill="#9F9C95"/>
<path d="M275.613 356.97L179.386 413.903L277.216 470.838L373.443 414.705L275.613 356.97Z" fill="#DBD6CB"/>
<path d="M525.27 585.776L522.611 583.062V474.881L525.27 473.511L525.916 470.843L618.66 416.743L621.497 417.378V528.841L525.27 585.776Z" fill="#615F5B"/>
<path d="M427.438 532.316V416.576L430.127 416.443L524.468 471.349L525.27 473.511V585.776L427.438 532.316Z" fill="#9F9C95"/>
<path d="M523.665 359.643L427.438 416.576L525.27 473.511L621.497 417.378L523.665 359.643Z" fill="#DBD6CB"/>
<path d="M405.519 656.343L402.862 653.63V545.449L405.519 544.078L406.168 541.408L498.911 487.311L501.746 487.946V599.408L405.519 656.343Z" fill="#615F5B"/>
<path d="M307.689 602.884V487.143L310.376 487.011L404.719 541.914L405.519 544.078V656.343L307.689 602.884Z" fill="#9F9C95"/>
<path d="M403.916 430.208L307.689 487.143L405.519 544.078L501.746 487.946L403.916 430.208Z" fill="#DBD6CB"/>
<path d="M396.968 359.108L394.308 356.392V248.214L396.968 246.843L397.614 244.173L490.357 190.076L493.195 190.711V302.173L396.968 359.108Z" fill="#615F5B"/>
<path d="M299.135 305.649V189.908L301.824 189.776L396.165 244.678L396.968 246.843V359.108L299.135 305.649Z" fill="#9F9C95"/>
<path d="M395.362 132.973L299.135 189.908L396.968 246.843L493.195 190.711L395.362 132.973Z" fill="#DBD6CB"/>
<path d="M277.216 429.673L274.559 426.959V318.781L277.216 317.408L277.865 314.741L370.605 260.641L373.443 261.276V372.741L277.216 429.673Z" fill="#615F5B"/>
<path d="M179.386 376.214V260.476L182.073 260.343L276.414 315.246L277.216 317.408V429.673L179.386 376.214Z" fill="#9F9C95"/>
<path d="M275.613 203.541L179.386 260.476L277.216 317.408L373.443 261.276L275.613 203.541Z" fill="#DBD6CB"/>
<path d="M525.27 432.346L522.611 429.632V321.454L525.27 320.081L525.916 317.413L618.66 263.313L621.497 263.949V375.413L525.27 432.346Z" fill="#615F5B"/>
<path d="M427.438 378.887V263.149L430.127 263.016L524.468 317.919L525.27 320.081V432.346L427.438 378.887Z" fill="#9F9C95"/>
<path d="M523.665 206.214L427.438 263.149L525.27 320.081L621.497 263.949L523.665 206.214Z" fill="#DBD6CB"/>
<path d="M405.519 502.914L402.862 500.2V392.019L405.519 390.649L406.168 387.981L498.911 333.881L501.746 334.516V445.978L405.519 502.914Z" fill="#615F5B"/>
<path d="M307.689 449.454V333.713L310.376 333.581L404.719 388.486L405.519 390.649V502.914L307.689 449.454Z" fill="#9F9C95"/>
<path d="M403.916 276.778L307.689 333.713L405.519 390.649L501.746 334.516L403.916 276.778Z" fill="#DBD6CB"/>
</g>
<defs>
<clipPath id="clip0_52_34">
<rect width="800" height="800" fill="white"/>
</clipPath>
</defs>
</svg>
