<svg width="32" height="32" viewBox="0 0 32 32" fill="none" xmlns="http://www.w3.org/2000/svg">
<path d="M30 16C29.9998 19.239 28.8765 22.3776 26.8215 24.8812C24.7666 27.3849 21.9071 29.0985 18.7304 29.7302C15.5536 30.3618 12.2561 29.8725 9.39966 28.3455C6.54325 26.8184 4.30467 24.3482 3.06536 21.3558C1.82605 18.3633 1.66267 15.0336 2.60308 11.9342C3.54348 8.83477 5.52948 6.15729 8.22268 4.35797C10.9159 2.55865 14.1496 1.74883 17.373 2.06647C20.5963 2.38412 23.6098 3.80959 25.9 6.09999C27.2019 7.39867 28.2344 8.94184 28.938 10.6408C29.6416 12.3398 30.0025 14.1611 30 16Z" fill="#615F5B"/>
<path d="M27.9 16C27.8998 18.7531 26.945 21.421 25.1983 23.5491C23.4516 25.6771 21.021 27.1337 18.3208 27.6706C15.6205 28.2076 12.8176 27.7916 10.3897 26.4936C7.96173 25.1957 6.05895 23.096 5.00553 20.5524C3.95212 18.0088 3.81325 15.1786 4.61259 12.5441C5.41194 9.90956 7.10003 7.6337 9.38925 6.10428C11.6785 4.57486 14.4272 3.8865 17.167 4.1565C19.9069 4.4265 22.4683 5.63815 24.415 7.585C25.5216 8.68889 26.3992 10.0006 26.9973 11.4447C27.5953 12.8888 27.9021 14.4369 27.9 16Z" fill="#DBD6CD"/>
<path d="M11.66 15.983C11.6546 15.8533 11.6762 15.7239 11.7234 15.603C11.7706 15.4821 11.8424 15.3723 11.9343 15.2806C12.0261 15.1888 12.136 15.1171 12.2569 15.0701C12.3779 15.023 12.5073 15.0015 12.637 15.007C12.83 15.0072 13.0186 15.0646 13.1789 15.172C13.3393 15.2793 13.4643 15.4318 13.538 15.6102C13.6117 15.7886 13.6309 15.9848 13.5931 16.174C13.5553 16.3633 13.4623 16.5371 13.3258 16.6735C13.1892 16.8099 13.0153 16.9028 12.826 16.9403C12.6367 16.9779 12.4405 16.9585 12.2623 16.8846C12.084 16.8107 11.9316 16.6856 11.8244 16.5251C11.7172 16.3647 11.66 16.176 11.66 15.983Z" fill="#615F5B"/>
<path d="M15.031 15.983C15.0256 15.8533 15.0472 15.7239 15.0944 15.603C15.1416 15.4821 15.2134 15.3723 15.3052 15.2806C15.3971 15.1888 15.5069 15.1171 15.6279 15.0701C15.7489 15.023 15.8783 15.0015 16.008 15.007C16.2009 15.0072 16.3895 15.0646 16.5499 15.172C16.7103 15.2793 16.8352 15.4318 16.9089 15.6102C16.9827 15.7886 17.0019 15.9848 16.9641 16.174C16.9263 16.3633 16.8333 16.5371 16.6967 16.6735C16.5602 16.8099 16.3863 16.9028 16.197 16.9403C16.0077 16.9779 15.8115 16.9585 15.6332 16.8846C15.4549 16.8107 15.3026 16.6856 15.1954 16.5251C15.0882 16.3647 15.031 16.176 15.031 15.983Z" fill="#615F5B"/>
<path d="M18.4 15.983C18.3946 15.8533 18.4162 15.7239 18.4634 15.603C18.5106 15.4821 18.5824 15.3723 18.6742 15.2806C18.7661 15.1888 18.8759 15.1171 18.9969 15.0701C19.1179 15.023 19.2473 15.0015 19.377 15.007C19.57 15.0072 19.7586 15.0646 19.9189 15.172C20.0793 15.2793 20.2042 15.4318 20.278 15.6102C20.3517 15.7886 20.3709 15.9848 20.3331 16.174C20.2953 16.3633 20.2023 16.5371 20.0658 16.6735C19.9292 16.8099 19.7553 16.9028 19.566 16.9403C19.3767 16.9779 19.1805 16.9585 19.0022 16.8846C18.824 16.8107 18.6716 16.6856 18.5644 16.5251C18.4572 16.3647 18.4 16.176 18.4 15.983Z" fill="#615F5B"/>
<path d="M7.61902 16.89V15.142C7.91836 15.1417 8.21573 15.0937 8.50002 15C8.68487 14.8972 8.83701 14.7443 8.93902 14.559C9.07364 14.3195 9.15994 14.0558 9.19302 13.783C9.23853 13.3794 9.25691 12.9731 9.24802 12.567C9.22735 11.908 9.26853 11.2484 9.37102 10.597C9.43369 10.2616 9.58807 9.95006 9.81702 9.69702C10.0278 9.43835 10.3092 9.24656 10.627 9.14502C11.0575 9.04069 11.5004 8.9966 11.943 9.01402H12.306V10.451C11.9776 10.4306 11.648 10.4613 11.329 10.542C11.194 10.5949 11.0813 10.6927 11.01 10.819C10.9326 11.1264 10.899 11.4432 10.91 11.76C10.91 12.066 10.8894 12.6464 10.848 13.501C10.8388 13.8967 10.779 14.2895 10.67 14.67C10.5906 14.9354 10.4665 15.1854 10.303 15.409C10.1082 15.6432 9.87807 15.8456 9.62102 16.009C9.87504 16.1602 10.0994 16.3564 10.283 16.588C10.4636 16.8274 10.5973 17.0989 10.677 17.388C10.7829 17.8025 10.8426 18.2274 10.855 18.655C10.887 19.461 10.903 19.9757 10.903 20.199C10.8911 20.5135 10.9282 20.8279 11.013 21.131C11.0898 21.2606 11.2067 21.3617 11.346 21.419C11.6592 21.5056 11.9847 21.5394 12.309 21.519V23.005H11.946C11.5076 23.0152 11.0706 22.9503 10.654 22.813C10.3361 22.7176 10.0486 22.5408 9.82002 22.3C9.58864 22.0473 9.43093 21.736 9.36402 21.4C9.27055 20.8431 9.23136 20.2785 9.24702 19.714C9.27077 19.1314 9.23391 18.548 9.13702 17.973C9.07592 17.6542 8.91645 17.3625 8.68102 17.139C8.35503 16.9642 7.98874 16.8783 7.61902 16.89Z" fill="#615F5B"/>
<path d="M23.285 17.143C23.0496 17.3665 22.8901 17.6581 22.829 17.977C22.7321 18.5519 22.6953 19.1354 22.719 19.718C22.7337 20.2812 22.6939 20.8445 22.6 21.4C22.5331 21.736 22.3754 22.0473 22.144 22.3C21.9167 22.5435 21.6295 22.7231 21.311 22.821C20.8945 22.9582 20.4575 23.0232 20.019 23.013H19.656V21.53C19.9803 21.5503 20.3058 21.5165 20.619 21.43C20.7583 21.3727 20.8752 21.2716 20.952 21.142C21.0368 20.8389 21.0739 20.5245 21.062 20.21C21.062 19.9866 21.078 19.472 21.11 18.666C21.1232 18.2386 21.1835 17.814 21.29 17.4C21.3697 17.1108 21.5034 16.8394 21.684 16.6C21.8677 16.3683 22.092 16.1721 22.346 16.021C22.089 15.8575 21.8589 15.6551 21.664 15.421C21.5005 15.1973 21.3764 14.9474 21.297 14.682C21.1881 14.3015 21.1282 13.9086 21.119 13.513C21.0777 12.6583 21.057 12.078 21.057 11.772C21.0681 11.4552 21.0344 11.1384 20.957 10.831C20.8857 10.7047 20.7731 10.6068 20.638 10.554C20.319 10.4732 19.9894 10.4425 19.661 10.463V9.01597H20.024C20.4666 8.99855 20.9095 9.04264 21.34 9.14697C21.6578 9.24851 21.9393 9.4403 22.15 9.69897C22.379 9.95201 22.5333 10.2635 22.596 10.599C22.6985 11.2503 22.7397 11.9099 22.719 12.569C22.7101 12.9751 22.7285 13.3813 22.774 13.785C22.8071 14.0578 22.8934 14.3214 23.028 14.561C23.13 14.7463 23.2822 14.8991 23.467 15.002C23.7518 15.0966 24.0499 15.1452 24.35 15.146V16.89C23.9789 16.879 23.6115 16.9662 23.285 17.143Z" fill="#615F5B"/>
</svg>
